# xmcd CD database file
#
# Track frame offsets:
#	150
#	5964
#	38967
#	60331
#	88418
#	91221
#	110189
#	112697
#	136829
#	165675
#	171994
#	197484
#	225852
#	233401
#	240436
#	261886
#
# Disc length: 3564 seconds
#
# Revision: 0
# Processed by: cddbd v1.5.2PL0 Copyright (c) Steve Scherf et al.
# Submitted via: CDex 1.51
#
DISCID=c50dea10
DTITLE=Berndt Luef and Jazztett Forum Graz - Trialogue
DYEAR=2003
DGENRE=Jazz
TTITLE0=The Issue
TTITLE1=Pagina
TTITLE2=The Last Glance
TTITLE3=Revilo-Trialogue
TTITLE4=Revilo-Interlude 1
TTITLE5=Revilo-Tryst
TTITLE6=Revilo-Interlude 2
TTITLE7=Revilo-Blue Conclusion
TTITLE8=Schattenspiel (Trio)
TTITLE9=Referat 17
TTITLE10=On That Score
TTITLE11=Serdica
TTITLE12=Paso Kustur
TTITLE13=Cascabel-Part 1
TTITLE14=Cascabel-Part 2
TTITLE15=The Issue
EXTD=YEAR: 2003
EXTT0=
EXTT1=
EXTT2=
EXTT3=
EXTT4=
EXTT5=
EXTT6=
EXTT7=
EXTT8=
EXTT9=
EXTT10=
EXTT11=
EXTT12=
EXTT13=
EXTT14=
EXTT15=
PLAYORDER=
